<?xml version="1.0" encoding="UTF-8" standalone="no"?><!DOCTYPE svg PUBLIC "-//W3C//DTD SVG 1.1//EN" "http://www.w3.org/Graphics/SVG/1.1/DTD/svg11.dtd"><svg width="100%" height="100%" viewBox="0 0 1906 1906" version="1.1" xmlns="http://www.w3.org/2000/svg" xmlns:xlink="http://www.w3.org/1999/xlink" xml:space="preserve" xmlns:serif="http://www.serif.com/" style="fill-rule:evenodd;clip-rule:evenodd;stroke-linejoin:round;stroke-miterlimit:2;"><path d="M106.127,105.939c-171.021,170.916 -128.975,497.201 80.308,846.483c-205.602,342.77 -253.536,673.672 -80.308,846.914c171.022,171.127 497.39,128.976 846.484,-80.308c342.769,205.603 673.672,253.536 846.914,80.308c171.021,-170.917 129.081,-497.202 -80.308,-846.483c205.602,-342.77 253.536,-673.673 80.308,-846.914c-112.263,-112.263 -292.53,-133.284 -505.167,-72.634c-35.738,10.091 -56.448,47.406 -46.252,83.145c10.197,35.633 47.406,56.342 83.144,46.143c170.39,-48.563 301.464,-33.321 373.151,38.473c174.28,174.28 -0.316,666.218 -418.573,1084.58c-32.06,32.059 -64.857,62.962 -98.176,92.605c-27.749,24.702 -30.168,67.168 -5.466,94.917c24.702,27.749 67.168,30.273 94.917,5.571c35.319,-31.325 69.902,-64.014 103.854,-97.966c97.441,-97.441 183.214,-199.19 255.637,-301.571c152.204,278.349 175.33,517.464 67.798,625.02c-174.28,174.28 -666.218,-0.315 -1084.58,-418.573c-32.06,-32.059 -62.962,-64.856 -92.606,-98.175c-24.701,-27.749 -67.273,-30.273 -95.021,-5.571c-27.749,24.701 -30.168,67.273 -5.466,95.021c31.325,35.214 64.014,69.903 97.966,103.854c97.441,97.441 199.19,183.214 301.571,255.637c-278.026,151.995 -517.383,175.435 -625.02,67.798c-174.281,-174.28 0.315,-666.218 418.573,-1084.58c34.371,-34.371 69.479,-67.273 105.112,-98.808l56.868,-47.301c66.221,-55.185 161.455,-58.339 231.145,-7.673l61.597,44.674c18.711,13.56 44.885,9.356 58.445,-9.355c9.985,-13.875 10.616,-32.374 1.471,-46.881l-42.465,-67.063c-44.148,-69.797 -37.735,-160.194 15.767,-223.054l49.088,-57.496c15.767,-18.501 13.56,-46.357 -4.941,-62.123c-13.454,-11.457 -32.374,-13.77 -48.143,-5.992l-110.476,54.658c-61.07,30.273 -133.706,25.122 -189.941,-13.454l-81.148,-55.606c-19.446,-13.349 -45.934,-8.409 -59.178,11.038c-9.671,14.085 -9.986,32.584 -0.841,46.986l39.311,61.703c47.092,73.79 37.106,170.284 -24.071,232.826l-47.196,48.353c-35.843,31.745 -71.056,64.962 -105.535,99.438c-97.441,97.441 -183.214,199.19 -255.638,301.572c-152.099,-278.242 -175.329,-517.465 -67.797,-625.021c56.552,-56.552 149.577,-78.311 272.025,-60.441c36.685,5.256 70.847,-20.181 76.207,-56.972c5.361,-36.79 -20.182,-70.846 -56.972,-76.207c-160.931,-23.335 -296.109,8.094 -386.39,98.493l0.01,0.012Zm1154.16,394.704c-25.963,26.699 -25.333,69.27 1.366,95.13c8.094,7.883 16.188,15.872 24.177,23.861c50.769,50.769 98.598,103.326 143.06,156.934c23.756,28.591 66.116,32.48 94.707,8.83c28.591,-23.756 32.584,-66.221 8.829,-94.812c-47.091,-56.763 -97.756,-112.368 -151.469,-166.081c-8.514,-8.515 -17.028,-16.924 -25.543,-25.228c-26.699,-25.858 -69.27,-25.227 -95.129,1.367l0.002,-0.001Z" style="fill-rule:nonzero;"/></svg>